#!OML:ASF F:\VICON\USERDATA\Patient Classification 1\PLAYGROUND\JustinFriday\JustinFriday.ASF
:FULLY-SPECIFIED
:DEGREES
3667
root 27.3958 31.1796 -9.52953 255.454 -92.2997 -223.442
lowerback 25.4874 2.05408 -2.3404
upperback 9.97229 1.32716 1.12021
thorax -3.19984 0.252873 2.20733
lowerneck 0.339213 2.61259 10.5584
upperneck -1.61602 3.49283 -2.70526
head -0.326018 1.68421 -2.7065
rclavicle 5.26779e-015 2.34317e-014
rhumerus -2.00421 23.6013 -75.6556
rradius 57.2612
rwrist 23.1535
rhand -48.0455 3.01294
rfingers 7.12502
rthumb -20.7121 -385.902
lclavicle 5.26779e-015 2.34317e-014
lhumerus 1.99598 -33.0743 76.0181
lradius 54.6233
lwrist -32.7454
lhand -37.1802 -29.4128
lfingers 7.12502
lthumb -10.2485 0.317501
rfemur -27.7238 1.21906 25.3265
rtibia 31.334
rfoot -31.9189 -3.7022
rtoes 12.7939
lfemur -27.8238 -5.75345 -16.3483
ltibia 30.0409
lfoot -30.0237 -3.11377
ltoes 14.9947
3668
root 27.4324 31.1833 -9.51841 233.716 -92.466 -201.913
lowerback 25.9361 1.69318 -2.13294
upperback 10.1741 0.880301 1.01722
thorax -3.16295 0.0319854 2.09884
lowerneck 0.161395 2.62026 10.5608
upperneck -1.76482 3.48406 -2.66844
head -0.343803 1.67404 -2.69296
rclavicle -3.77691e-015 -7.70291e-016
rhumerus -1.59259 23.3378 -75.597
rradius 57.629
rwrist 23.2166
rhand -47.8775 3.08893
rfingers 7.12502
rthumb -20.5507 -385.843
lclavicle -3.77691e-015 -7.70291e-016
lhumerus 2.91463 -32.7787 76.0467
lradius 54.3747
lwrist -32.9681
lhand -37.1713 -28.8502
lfingers 7.12502
lthumb -10.2399 0.880527
rfemur -27.626 0.859023 24.9108
rtibia 31.3672
rfoot -32.1839 -3.91894
rtoes 13.8262
lfemur -27.8741 -6.15816 -16.7369
ltibia 30.0645
lfoot -29.697 -3.91409
ltoes 15.2455
3669
root 27.462 31.1889 -9.49593 227.719 -92.7575 -196.095
lowerback 26.3189 1.39115 -1.56658
upperback 10.3047 0.598716 0.911464
thorax -3.1803 -0.0979653 1.7379
lowerneck 0.0440906 2.63034 10.5616
upperneck -1.84017 3.48457 -2.62978
head -0.348075 1.67093 -2.67871
rclavicle 5.54609e-014 5.91136e-014
rhumerus -1.50337 23.1798 -75.6011
rradius 58.1616
rwrist 23.2338
rhand -47.7211 2.99884
rfingers 7.12502
rthumb -20.4004 -385.95
lclavicle 5.54609e-014 5.91136e-014
lhumerus 2.54849 -33.1632 74.7019
lradius 56.1326
lwrist -31.8537
lhand -36.7813 -28.5411
lfingers 7.12502
lthumb -9.8636 1.2079
rfemur -27.6036 0.36052 24.8834
rtibia 31.5204
rfoot -32.229 -3.89411
rtoes 13.7
lfemur -27.8525 -6.46788 -16.7779
ltibia 30.044
lfoot -29.5726 -4.12045
ltoes 15.0619
3670
root 27.5051 31.1905 -9.45377 227.193 -92.8052 -195.611
lowerback 26.6964 1.11397 -0.807686
upperback 10.325 0.400328 0.690864
thorax -3.32178 -0.175764 1.1198
lowerneck -0.0473666 2.63071 10.5653
upperneck -1.86243 3.47455 -2.57667
head -0.340851 1.66408 -2.66007
rclavicle -2.24875e-014 -2.73826e-014
rhumerus -1.63778 23.0413 -75.6804
rradius 58.8757
rwrist 23.2652
rhand -47.569 2.76519
rfingers 7.12502
rthumb -20.2542 -386.199
lclavicle -2.24875e-014 -2.73826e-014
lhumerus 3.10865 -32.3246 75.4717
lradius 55.3653
lwrist -32.9749
lhand -36.6339 -28.6375
lfingers 7.12502
lthumb -9.72143 1.11817
rfemur -27.7965 -0.357835 24.8546
rtibia 31.5431
rfoot -31.9057 -3.62269
rtoes 12.595
lfemur -28.0866 -6.74271 -16.8964
ltibia 30.1794
lfoot -29.6236 -3.47209
ltoes 13.7641
3671
root 27.5405 31.1919 -9.45759 224.455 -92.6845 -192.921
lowerback 26.9837 1.13728 -0.931955
upperback 10.4002 0.377841 0.612709
thorax -3.37417 -0.193004 1.1128
lowerneck -0.170524 2.61721 10.5552
upperneck -1.91907 3.44294 -2.53131
head -0.34069 1.64554 -2.64149
rclavicle -1.26104e-014 -4.10304e-015
rhumerus -1.68559 22.8285 -75.6395
rradius 59.7299
rwrist 23.2695
rhand -47.2396 2.80902
rfingers 7.12502
rthumb -19.9376 -386.188
lclavicle -1.26104e-014 -4.10304e-015
lhumerus 3.47202 -31.5429 75.9042
lradius 54.8887
lwrist -33.8715
lhand -36.7457 -28.8234
lfingers 7.12502
lthumb -9.82932 0.927222
rfemur -27.8247 -0.221585 24.6413
rtibia 31.4158
rfoot -31.6957 -4.17726
rtoes 11.1862
lfemur -28.3199 -6.39593 -17.1665
ltibia 30.4909
lfoot -29.6039 -3.86847
ltoes 14.1903
